<?xml version="1.0" encoding="utf-8"?>
<!-- Generator: Adobe Illustrator 16.0.0, SVG Export Plug-In . SVG Version: 6.00 Build 0)  -->
<!DOCTYPE svg PUBLIC "-//W3C//DTD SVG 1.1//EN" "http://www.w3.org/Graphics/SVG/1.1/DTD/svg11.dtd">
<svg version="1.1" id="Слой_1" xmlns="http://www.w3.org/2000/svg" xmlns:xlink="http://www.w3.org/1999/xlink" x="0px" y="0px"
	 width="141.679px" height="33.732px" viewBox="0 0 141.679 33.732" enable-background="new 0 0 141.679 33.732"
	 xml:space="preserve">
<path fill="none" stroke="#231F20" stroke-miterlimit="10" d="M-132.412-169.782"/>
<path fill="none" stroke="#231F20" stroke-miterlimit="10" d="M-148.048-169.782"/>
<g>
	<g>
		<path fill="#F1F2F2" d="M7.615,24.34V9.391h5.15c1.163,0,2.049,0.071,2.661,0.215c0.857,0.196,1.587,0.554,2.193,1.07
			c0.788,0.666,1.378,1.518,1.769,2.555c0.391,1.037,0.586,2.221,0.586,3.554c0,1.136-0.133,2.142-0.397,3.019
			c-0.265,0.877-0.605,1.603-1.02,2.177c-0.415,0.574-0.869,1.026-1.361,1.356s-1.088,0.579-1.785,0.749s-1.497,0.255-2.401,0.255
			H7.615z M9.593,22.577h3.192c0.985,0,1.759-0.092,2.32-0.275c0.561-0.184,1.007-0.441,1.341-0.774
			c0.469-0.47,0.834-1.101,1.096-1.893c0.262-0.792,0.393-1.751,0.393-2.88c0-1.563-0.257-2.766-0.77-3.605
			c-0.513-0.839-1.137-1.402-1.871-1.688c-0.53-0.204-1.384-0.306-2.56-0.306H9.593V22.577z"/>
		<path fill="#F1F2F2" d="M22.738,24.34V9.391h10.809v1.765h-8.831v4.578h8.27v1.755h-8.27v5.088h9.177v1.764H22.738z"/>
		<path fill="#F1F2F2" d="M34.985,24.34l5.741-14.949h2.131l6.119,14.949h-2.254l-1.743-4.527h-6.251l-1.642,4.527H34.985z
			 M39.299,18.202h5.068l-1.56-4.14c-0.477-1.258-0.83-2.291-1.061-3.101c-0.19,0.959-0.459,1.911-0.806,2.855L39.299,18.202z"/>
		<path fill="#F1F2F2" d="M52.811,24.34V11.156h-4.926V9.391h11.85v1.765h-4.946V24.34H52.811z"/>
		<path fill="#F1F2F2" d="M82.679,24.34V9.391h6.629c1.332,0,2.346,0.135,3.038,0.403c0.694,0.269,1.248,0.742,1.663,1.422
			c0.414,0.681,0.622,1.432,0.622,2.254c0,1.061-0.344,1.955-1.03,2.683c-0.687,0.727-1.747,1.189-3.182,1.387
			c0.523,0.252,0.921,0.499,1.192,0.744c0.579,0.53,1.126,1.192,1.643,1.988l2.601,4.068h-2.488l-1.979-3.11
			c-0.578-0.897-1.054-1.583-1.428-2.06c-0.374-0.476-0.709-0.809-1.005-0.999s-0.597-0.323-0.902-0.397
			c-0.224-0.048-0.591-0.071-1.101-0.071h-2.295v6.638H82.679z M84.657,15.989h4.253c0.903,0,1.61-0.093,2.12-0.28
			c0.511-0.187,0.897-0.486,1.163-0.897s0.397-0.857,0.397-1.341c0-0.707-0.257-1.288-0.77-1.744
			c-0.514-0.455-1.324-0.683-2.433-0.683h-4.731V15.989z"/>
		<path fill="#F1F2F2" d="M96.089,24.34l5.741-14.949h2.131l6.119,14.949h-2.254l-1.744-4.527h-6.251l-1.642,4.527H96.089z
			 M100.402,18.202h5.068l-1.561-4.14c-0.476-1.258-0.829-2.291-1.061-3.101c-0.19,0.959-0.459,1.911-0.806,2.855L100.402,18.202z"
			/>
		<path fill="#F1F2F2" d="M113.914,24.34V11.156h-4.926V9.391h11.85v1.765h-4.945V24.34H113.914z"/>
		<path fill="#F1F2F2" d="M122.908,24.34V9.391h10.809v1.765h-8.831v4.578h8.271v1.755h-8.271v5.088h9.178v1.764H122.908z"/>
	</g>
	<g>
		<rect x="61.233" y="9.401" fill="#06BCEF" width="1.979" height="14.931"/>
		<rect x="70.973" y="9.401" fill="#06BCEF" width="1.979" height="14.931"/>
		<polygon fill="#06BCEF" points="70.911,18.275 67.008,18.275 62.77,15.918 62.77,13.563 		"/>
	</g>
</g>
</svg>
