<?xml version="1.0" encoding="utf-8"?>
<!-- Generator: Adobe Illustrator 16.0.0, SVG Export Plug-In . SVG Version: 6.00 Build 0)  -->
<!DOCTYPE svg PUBLIC "-//W3C//DTD SVG 1.1//EN" "http://www.w3.org/Graphics/SVG/1.1/DTD/svg11.dtd">
<svg version="1.1" id="Слой_1" xmlns="http://www.w3.org/2000/svg" xmlns:xlink="http://www.w3.org/1999/xlink" x="0px" y="0px"
	 width="141.68px" height="33.732px" viewBox="0 0 141.68 33.732" enable-background="new 0 0 141.68 33.732" xml:space="preserve">
<rect x="0" y="0" fill="#22252C" width="141.68" height="33.732"/>
<path fill="none" stroke="#231F20" stroke-miterlimit="10" d="M-132.412-169.781"/>
<path fill="none" stroke="#231F20" stroke-miterlimit="10" d="M-148.048-169.781"/>
<g>
	<g>
		<path fill="#F1F2F2" d="M7.615,24.34V9.391h5.15c1.163,0,2.049,0.07,2.66,0.215c0.857,0.196,1.588,0.554,2.193,1.07
			c0.788,0.665,1.378,1.518,1.77,2.555c0.391,1.037,0.586,2.221,0.586,3.554c0,1.136-0.134,2.143-0.397,3.02
			c-0.265,0.877-0.604,1.603-1.02,2.177s-0.869,1.025-1.361,1.355s-1.088,0.579-1.785,0.749s-1.497,0.255-2.401,0.255L7.615,24.34
			L7.615,24.34z M9.593,22.577h3.192c0.985,0,1.759-0.092,2.32-0.274c0.561-0.185,1.007-0.441,1.341-0.774
			c0.469-0.47,0.834-1.101,1.096-1.893c0.263-0.792,0.394-1.752,0.394-2.881c0-1.563-0.257-2.766-0.771-3.604
			c-0.513-0.839-1.137-1.402-1.871-1.688c-0.529-0.204-1.384-0.306-2.56-0.306H9.593V22.577z"/>
		<path fill="#F1F2F2" d="M22.738,24.34V9.391h10.809v1.765h-8.831v4.578h8.271v1.755h-8.271v5.088h9.178v1.764L22.738,24.34
			L22.738,24.34z"/>
		<path fill="#F1F2F2" d="M34.985,24.34l5.741-14.948h2.131l6.119,14.948h-2.254l-1.743-4.526h-6.251l-1.643,4.526H34.985z
			 M39.299,18.202h5.068l-1.56-4.14c-0.478-1.258-0.83-2.291-1.062-3.102c-0.189,0.959-0.459,1.911-0.806,2.855L39.299,18.202z"/>
		<path fill="#F1F2F2" d="M52.811,24.34V11.156h-4.927V9.391h11.851v1.765h-4.946V24.34H52.811z"/>
		<path fill="#F1F2F2" d="M82.679,24.34V9.391h6.629c1.332,0,2.346,0.135,3.038,0.402c0.693,0.27,1.248,0.742,1.662,1.422
			c0.414,0.682,0.622,1.433,0.622,2.255c0,1.061-0.344,1.954-1.029,2.683c-0.688,0.727-1.747,1.188-3.183,1.387
			c0.523,0.252,0.921,0.499,1.192,0.744c0.579,0.53,1.126,1.192,1.643,1.988l2.602,4.067h-2.488l-1.979-3.109
			c-0.578-0.897-1.055-1.583-1.429-2.061c-0.374-0.476-0.709-0.809-1.005-0.999c-0.296-0.189-0.597-0.322-0.901-0.396
			c-0.225-0.048-0.592-0.071-1.102-0.071h-2.295v6.638L82.679,24.34L82.679,24.34z M84.657,15.989h4.253
			c0.903,0,1.61-0.093,2.12-0.28c0.511-0.187,0.897-0.485,1.163-0.896s0.396-0.857,0.396-1.341c0-0.707-0.257-1.288-0.77-1.744
			c-0.514-0.455-1.324-0.684-2.433-0.684h-4.731L84.657,15.989L84.657,15.989z"/>
		<path fill="#F1F2F2" d="M96.089,24.34l5.741-14.948h2.131l6.119,14.948h-2.254l-1.744-4.526h-6.251l-1.642,4.526H96.089z
			 M100.402,18.202h5.068l-1.562-4.14c-0.476-1.258-0.829-2.291-1.061-3.102c-0.19,0.959-0.459,1.911-0.807,2.855L100.402,18.202z"
			/>
		<path fill="#F1F2F2" d="M113.914,24.34V11.156h-4.926V9.391h11.85v1.765h-4.944V24.34H113.914z"/>
		<path fill="#F1F2F2" d="M122.908,24.34V9.391h10.809v1.765h-8.83v4.578h8.271v1.755h-8.271v5.088h9.178v1.764L122.908,24.34
			L122.908,24.34z"/>
	</g>
	<g>
		<rect x="61.233" y="9.401" fill="#06BCEF" width="1.979" height="14.931"/>
		<rect x="70.973" y="9.401" fill="#06BCEF" width="1.979" height="14.931"/>
		<polygon fill="#06BCEF" points="70.911,18.275 67.008,18.275 62.77,15.918 62.77,13.563 		"/>
	</g>
</g>
</svg>
