<?xml version="1.0" encoding="utf-8"?>
<!-- Generator: Adobe Illustrator 16.0.0, SVG Export Plug-In . SVG Version: 6.00 Build 0)  -->
<!DOCTYPE svg PUBLIC "-//W3C//DTD SVG 1.1//EN" "http://www.w3.org/Graphics/SVG/1.1/DTD/svg11.dtd">
<svg version="1.1" id="man" xmlns="http://www.w3.org/2000/svg" xmlns:xlink="http://www.w3.org/1999/xlink" x="0px" y="0px"
	 width="283.464px" height="283.464px" viewBox="0 0 283.464 283.464" enable-background="new 0 0 283.464 283.464"
	 xml:space="preserve">
<g>
	<ellipse fill="#808285" cx="200.714" cy="41.825" rx="13.375" ry="7.175"/>
	<path fill="#808285" d="M2.625,192.644c0-18.219,0.099-36.436-0.048-54.643c-0.06-7.466,1.314-14.24,7.8-18.732
		c5.644-3.908,6.282-10.048,7.941-15.817c4.933-17.144,15.288-29.398,32.306-35.559c5.868-2.125,11.023-2.586,17.021,1.499
		c10.029,6.836,21.281,6.721,31.273-0.424c5.646-4.04,10.098-3.064,15.197,0.036c11.201,6.815,18.535,16.896,24.638,28.204
		c3.946,7.313,3.999,6.918,10.616,1.219c5.313-4.574,10.938-8.939,16.959-12.498c6.818-4.035,13.713-4.772,21.301,0.104
		c8.135,5.222,17.931,5.188,26.021,0.255c9.409-5.74,17.227-3.344,25.523,1.343c13.799,7.787,23.273,19.227,28.865,33.969
		c1.426,3.772,1.746,8.565,4.316,11.201c9.191,9.426,8.824,20.889,8.755,32.607c-0.165,27.319,0.017,54.646-0.219,81.965
		c-0.037,4.191,1.856,11.803-3.241,11.694c-6.914-0.132-3.979-7.964-4.031-12.403c-0.309-27.318-0.168-54.645-0.197-81.963
		c-0.004-4.045-0.012-8.097-0.182-12.141c-0.144-3.4-1.361-5.51-5.514-5.354c-2.857,0.106-5.744-1.358-8.656-1.564
		c-1.613-0.115-3.787,0.438-4.867,1.523c-1.942,1.951-2.973,6.449-6.424,3.262c-1.375-1.26-0.099-5.436,0.049-8.279
		c0.025-0.453,0.453-0.89,0.692-1.334c2.06-3.888,6.515-8.405,5.69-11.522c-1.737-6.58-5.584-12.938-9.842-18.391
		c-2.892-3.706-9.447-8.915-11.736-7.841c-5.493,2.565-1.342,8.701-0.709,13.384c2.981,22.031,6.306,44.015,8.921,66.095
		c1.919,16.217-1.517,20.229-17.47,24.586c-15.047,4.108-29.944,3.896-44.951-0.033c-15.467-4.045-18.373-6.754-17.094-23.283
		c1.523-19.618,4.666-39.112,7.27-58.638c0.736-5.501,2.271-10.9,2.965-16.406c0.271-2.174-0.74-4.513-1.17-6.777
		c-2.216,0.979-4.785,1.531-6.576,3.022c-7.293,6.078-11.197,14.137-12.927,23.398c-0.841,4.455-1.585,9.038-3.277,13.188
		c-1.985,4.869-8.309,5.224-10.8,0.527c-1.822-3.435-2.413-7.59-3.188-11.497c-2.571-12.972-5.573-25.783-14.241-36.296
		c-1.448-1.755-3.974-2.619-6.002-3.896c-0.616,1.849-1.816,3.718-1.763,5.547c0.661,22.71,1.351,45.417,2.337,68.108
		c1.163,26.759,2.64,53.509,3.931,80.268c0.097,2.01,0.063,4.085-0.338,6.045c-1.271,6.251-7.089,10.781-13.021,10.377
		c-5.463-0.387-10.163-4.496-10.705-10.921c-1.059-12.592-1.289-25.242-2.096-37.853c-0.97-15.121-2.147-30.242-3.332-45.348
		c-0.193-2.494-0.422-5.188-1.511-7.346c-0.717-1.426-2.912-2.537-4.623-2.857c-0.998-0.197-3.133,1.228-3.405,2.272
		c-1.392,5.345-3,10.772-3.335,16.233c-1.339,21.692-2.229,43.418-3.289,65.121c-0.17,3.532,0.064,7.156-0.652,10.573
		c-1.243,5.931-6.234,10.022-11.744,10.058c-5.712,0.033-10.066-2.883-11.45-8.188c-1.375-5.271-2.063-10.986-1.659-16.406
		c2.222-29.715,2.259-59.529,6.773-89.179c2.708-17.8,0.626-36.347,0.408-54.557c-0.025-2.149-1.408-5.46-3.006-6.09
		c-1.664-0.655-4.755,0.778-6.52,2.183c-6.574,5.229-10.091,12.415-12.318,20.421c-1.194,4.278-0.84,7.696,2.343,11.105
		c2.357,2.529,4.561,5.593,5.61,8.816c0.815,2.5,0.818,6.659-0.716,8.244c-3.23,3.34-4.93-0.461-6.502-2.932
		c-2.926-4.607-6.327-0.23-9.451-0.564c-3.694-0.391-7.328-1.33-10.989-2.029c-0.474,4.455-1.338,8.902-1.355,13.36
		c-0.117,32.886,0.083,65.772-0.23,98.657c-0.045,4.859,3.045,13.498-4.567,13.531c-5.942,0.033-3.401-8.244-3.484-12.848
		c-0.305-17.195-0.121-34.4-0.121-51.6C2.612,192.644,2.618,192.644,2.625,192.644z"/>
	<path fill="#808285" d="M82.622,70.125C70.797,70.507,59.244,59.394,58.797,47.2c-0.466-12.766,10.826-24.46,23.716-24.551
		c12.736-0.095,22.959,9.904,23.354,22.834C106.286,59.138,96.343,69.676,82.622,70.125z"/>
	<g>
		<path fill="#808285" d="M200.74,86.713c-5.891,0-11.445-2.329-15.643-6.558c-4.334-4.367-6.693-10.201-6.646-16.429
			c0.1-12.378,9.43-21.514,22.184-21.722L201.128,42c13.004,0,21.371,8.095,21.832,21.126c0.242,6.862-1.756,12.745-5.783,17.014
			c-3.91,4.146-9.418,6.417-15.928,6.566C201.082,86.711,200.91,86.713,200.74,86.713z"/>
		<path fill="#FFFFFF" d="M201.128,43c12.363,0,20.394,7.744,20.832,20.162c0.47,13.227-7.828,22.249-20.733,22.546
			c-0.162,0.004-0.326,0.005-0.487,0.005c-11.799,0-21.382-9.836-21.287-21.979c0.094-11.736,9.092-20.532,21.198-20.73
			C200.81,43.001,200.97,43,201.128,43 M201.128,41c-0.17,0-0.34,0.001-0.51,0.004c-13.104,0.214-23.064,9.979-23.168,22.713
			c-0.05,6.497,2.413,12.584,6.937,17.142c4.386,4.42,10.192,6.854,16.353,6.854c0.178,0,0.355-0.002,0.533-0.006
			c6.782-0.156,12.533-2.535,16.632-6.88c4.216-4.468,6.31-10.601,6.056-17.736C223.485,49.671,214.524,41,201.128,41L201.128,41z"
			/>
	</g>
	<path fill="#808285" d="M193.144,232.412c0,4.924,0.333,9.885-0.078,14.774c-0.691,8.188-4.975,13.246-10.753,13.478
		c-5.854,0.242-11.003-4.728-11.312-12.764c-0.416-10.904,0.16-21.871,0.588-32.794c0.207-5.176,2.266-8.394,7.813-6.157
		c1.393,0.563,2.98,0.508,4.469,0.813c9.336,1.857,9.353,1.867,9.586,12.789c0.07,3.281,0.008,6.57,0.008,9.859
		C193.358,232.412,193.25,232.412,193.144,232.412z"/>
	<path fill="#808285" d="M230.46,231.473c0,5.981,0.42,12.009-0.107,17.927c-0.634,7.066-5.254,11.555-10.641,11.413
		c-5.396-0.144-9.784-4.612-10.195-11.901c-0.581-10.302-0.393-20.656-0.453-30.992c-0.025-4.471,2.034-7.059,6.268-7.545
		c16.596-1.922,14.486-5.414,15.143,12.939c0.095,2.719,0.012,5.439,0.012,8.159C230.477,231.473,230.468,231.473,230.46,231.473z"
		/>
</g>
</svg>
