<?xml version="1.0" encoding="utf-8"?>
<!-- Generator: Adobe Illustrator 16.0.0, SVG Export Plug-In . SVG Version: 6.00 Build 0)  -->
<!DOCTYPE svg PUBLIC "-//W3C//DTD SVG 1.1//EN" "http://www.w3.org/Graphics/SVG/1.1/DTD/svg11.dtd">
<svg version="1.1" id="Слой_1" xmlns="http://www.w3.org/2000/svg" xmlns:xlink="http://www.w3.org/1999/xlink" x="0px" y="0px"
	 width="595.28px" height="841.89px" viewBox="0 0 595.28 841.89" enable-background="new 0 0 595.28 841.89" xml:space="preserve">
<g>
	<path fill-rule="evenodd" clip-rule="evenodd" d="M287,250.89c3.872,0.874,7.856,1.418,11.596,2.684
		c12.424,4.204,21.026,13.146,26.396,24.546c11.697,24.831,22.768,49.966,33.72,75.14c5.095,11.711,9.261,23.823,14.004,35.691
		c0.575,1.438,2.035,2.585,3.242,3.696c3.072,2.828,6.329,5.39,6.109,10.309c-0.052,1.156,1.446,2.521,2.462,3.564
		c22.548,23.162,45.043,46.377,67.804,69.327c3.043,3.068,7.226,5.378,11.296,6.982c10.215,4.025,20.643,7.518,31.037,11.069
		c3.744,1.279,5.825,3.343,4.449,7.403c-1.405,4.15-4.429,4.323-8.08,3.012c-11.124-3.996-22.515-7.36-33.336-12.044
		c-5.616-2.432-10.835-6.541-15.231-10.902c-21.167-21.003-42.004-42.341-62.925-63.592c-2.021-2.052-3.921-3.225-7.184-3.298
		c-3-0.066-6.457-1.778-8.82-3.806c-5.676-4.868-10.479-10.789-16.328-15.405c-3.264-2.575-7.816-4.347-11.967-4.783
		c-7.232-0.763-14.602-0.213-22.807-0.213c4.068,18.346,8.039,36.251,12.151,54.796c7.052-1.968,13.87-3.884,20.696-5.774
		c9.622-2.664,14.762,0.273,17.449,9.969c4.136,14.918,8.438,29.795,12.214,44.804c0.613,2.438-0.23,6.598-1.975,7.988
		c-3.458,2.758-7.841,5.046-12.157,5.867c-5.74,1.093-8.93-1.761-10.533-7.513c-3.038-10.894-5.997-21.809-9.083-33.056
		c-1.671,0.316-3.097,0.483-4.463,0.861c-15.236,4.223-30.431,8.603-45.716,12.638c-3.857,1.019-5.248,2.528-5.212,6.732
		c0.23,26.828,0.263,53.661-0.008,80.488c-0.051,5.035-1.202,10.249-2.867,15.025c-1.779,5.105-6.166,7.753-11.706,7.829
		c-5.613,0.076-9.889-2.766-11.748-7.756c-1.704-4.571-2.777-9.646-2.843-14.517c-0.36-26.659-0.324-53.323-0.422-79.986
		c-0.007-1.967,0-3.934,0-6.553c-7.563,0-14.647,0-22.159,0c6.883-30.878,13.605-61.033,20.333-91.217
		c-10.142-1.698-10.185-1.67-13.606,6.63c-0.762,1.847-1.552,3.684-2.388,5.498c-3.112,6.758-7.279,11.303-15.792,11.386
		c-9.757,0.095-19.5,1.706-29.606,2.693c0.418,4.447,0.271,8.084-5.311,9.463c-7.869,1.943-8.307,0.105-11.676-6.047
		c-3.713-6.779-6.354-12.564-4.831-20.297c0.53-2.695-2.574-6.781-1.426-8.564c5.721-8.895,0.313-16.646-2.126-24.314
		c-2.592-8.148-6.147-16.322-10.922-23.375c-9.278-13.701-22.757-20.285-39.528-18.464c-21.405,2.324-33.855,17.418-31.701,38.888
		c0.773,7.707,2.687,15.441,5.135,22.813c11.323,34.087,27.819,65.914,43.617,98.027c6.097,12.394,12.6,24.592,19.07,36.798
		c3.676,6.936,5.731,14.199,5.291,22.054c-0.87,15.508-10.767,24.413-26.274,23.626c-2.898-0.147-5.773-0.763-8.974-2.405
		c3.575-1.888,7.093-3.896,10.736-5.643c14.497-6.951,17.31-15.511,10.207-29.826c-17.092-34.444-34.514-68.739-50.801-103.563
		c-8.663-18.522-15.132-38.028-18.04-58.518c-3.949-27.826,10.797-49.514,37.655-53.237c17.232-2.39,33.074,1.739,45.79,14.752
		c14.416,14.753,22.012,32.639,25.102,52.766c0.825,5.373,2.228,10.658,3.44,16.335c10.553-0.904,20.5-1.595,30.391-2.769
		c1.576-0.187,2.895-2.541,5.243-4.75c-6.02-0.385-10.591-0.51-15.121-1.008c-6.534-0.718-9.333-4.759-6.99-10.737
		c11.23-28.656,22.317-57.377,34.219-85.755c3.621-8.632,9.165-16.619,14.75-24.225c7.269-9.897,17.291-15.954,29.746-17.461
		c0.797-0.097,1.556-0.512,2.333-0.778C283.667,250.89,285.333,250.89,287,250.89z M348.785,368.884
		c0.768-0.641,1.535-1.281,2.304-1.923c-3.995-9.829-7.571-19.854-12.074-29.445c-8.693-18.516-17.022-37.292-27.13-55.032
		c-13.125-23.033-40.774-23.239-55.68-1.317c-1.868,2.746-3.492,5.67-5.078,8.593c-14.52,26.761-24.353,55.412-33.863,84.189
		c-0.179,0.542-0.022,1.195-0.022,1.769c8.817,0.939,8.821,0.941,12.41-6.223c3.952-7.888,7.794-15.833,11.874-23.654
		c4.114-7.888,10.336-12.033,19.686-11.84c14.984,0.309,29.983,0.029,44.975-0.159c6.344-0.079,11.777,1.698,16.141,6.426
		C331.135,349.816,339.964,359.346,348.785,368.884z M304.639,359.643c1.299,5.2,2.416,10.039,3.779,14.808
		c0.25,0.873,1.477,2.057,2.286,2.084c5.538,0.183,11.086,0.096,17.046,0.096C317.893,364.033,311.275,359.05,304.639,359.643z
		 M262.408,358.896c-9.507,2.913-8.372,11.363-12.298,16.759c7.728,1.338,7.733,1.339,9.411-5.241
		C260.373,367.075,261.198,363.729,262.408,358.896z"/>
	<path fill-rule="evenodd" clip-rule="evenodd" d="M341.132,566.716c2.431-19.971,4.703-38.631,7.038-57.816
		c6.884,5.147,14.075,4.948,21.405,2.156c8.322-3.17,11.649-8.326,10.959-17.308c13.116-0.642,26.224-1.283,39.331-1.92
		c0.665-0.032,1.354,0.089,1.996-0.043c15.245-3.14,29.184,0.952,42.935,7.183c8.17,3.701,16.741,6.537,25.208,9.548
		c2.536,0.902,5.329,1.082,8.52,1.69c2.732,16.327,5.56,33.217,8.385,50.105c0.356,2.135,0.819,4.259,1.034,6.408
		c0.448,4.486,1.971,7.013,7.306,7.446c2.678,0.217,6.204,3.494,7.311,6.216c1.476,3.63-2.017,6.411-5.243,7.235
		c-5.051,1.289-10.371,2.271-15.541,2.122c-4.886-0.14-7.209-4.667-8.629-8.734c-2.957-8.471-5.354-17.138-8.013-25.715
		c-1.528-4.928-3.194-9.813-4.655-14.76c-0.802-2.715-2.404-3.522-5.17-3.39c-22.462,1.08-44.93,2.029-67.394,3.043
		c-8.986,0.405-17.966,0.98-26.955,1.247c-2.885,0.086-4,1.248-4.647,3.938c-2.493,10.356-5.17,20.67-7.85,30.981
		c-2.261,8.698-9.079,14.365-17.968,14.553c-14.158,0.299-28.32,0.452-42.482,0.443c-9.021-0.005-12.843-3.073-13.812-10.392
		c-1.068-8.064,2.836-13.74,10.958-14.104C316.938,566.325,328.758,566.716,341.132,566.716z"/>
	<path fill-rule="evenodd" clip-rule="evenodd" d="M457.901,454.085c-7.813,1.266-10.856,0.375-11.481-3.76
		c-1.096-7.25,5.229-6.787,10.081-8.683c-1.92-8.51-3.806-17.054-5.783-25.577c-1.871-8.065-1.021-9.629,6.959-11.558
		c9.225-2.23,18.474-4.364,27.723-6.493c6.074-1.398,8.245-0.06,9.68,5.938c2.126,8.89,4.207,17.79,6.358,26.905
		c4.52,0.569,10.658-3.559,12.601,3.844c1.213,4.619-2.056,6.576-6.488,7.859c5.466,9.633,5.317,19.655,2.161,29.526
		c-1.638,5.122-4.401,10.006-7.352,14.547c-2.132,3.282-5.569,4.128-9.707,2.518c-10.235-3.984-20.595-7.661-30.971-11.271
		c-2.583-0.899-3.849-2.185-3.808-4.961C457.964,466.795,457.901,460.667,457.901,454.085z"/>
	<path fill-rule="evenodd" clip-rule="evenodd" d="M256.752,301.071c-0.094-15.685,12.109-28.791,26.968-28.964
		c14.832-0.172,27.058,12.704,27.207,28.657c0.155,16.656-11.731,29.409-27.387,29.381
		C268.763,330.119,256.848,317.187,256.752,301.071z"/>
</g>
</svg>
